# xmcd CD database file
#
# Track frame offsets:
#	150
#	11410
#	20965
#	31200
#	43390
#	52347
#	66302
#	76752
#	88070
#	99817
#	109195
#	122122
#
# Disc length: 1762 seconds
#
# Revision: 0
# Processed by: cddbd v1.4PL0 Copyright (c) Steve Scherf et al.
# Submitted via: CDex 1.50beta8
#
DISCID=9f06e00c
DTITLE=Canned Heat - Rollin' and Tumblin'
DYEAR=2002
DGENRE=Blues
TTITLE0=Spoonful
TTITLE1=Big Road Blues
TTITLE2=Rollin' And Tumblin'
TTITLE3=Got My Mojo Working
TTITLE4=Pretty Thing
TTITLE5=Louise
TTITLE6=Dimples
TTITLE7=Don't Hold On
TTITLE8=Straight On
TTITLE9=Rollin' And Tumblin' (with Harmonica)
TTITLE10=Same All Over
TTITLE11=I've got My Eyes On You
EXTD=YEAR: 2002
EXTT0=
EXTT1=
EXTT2=
EXTT3=
EXTT4=
EXTT5=
EXTT6=
EXTT7=
EXTT8=
EXTT9=
EXTT10=
EXTT11=
PLAYORDER=
